# xmcd CD database file
#
# Track frame offsets:
#	225
#	9167
#	22792
#	30965
#	43937
#	53292
#	65492
#	77817
#	90430
#	103705
#
# Disc length: 1546 seconds
#
# Revision: 0
# Processed by: cddbd v1.4PL0 Copyright (c) Steve Scherf et al.
# Submitted via: CDex 1.40Release
#
DISCID=6206070a
DTITLE=Oak Ridge Boys - Songs of Faith
DYEAR=1900
DGENRE=Country
TTITLE0=Day of Rejoicing
TTITLE1=Lead Me to Calvary
TTITLE2=River of Life
TTITLE3=You'll Never Walk Alone
TTITLE4=One of These Mornings
TTITLE5=At the Roll Call
TTITLE6=Time Has Made a Change in Me
TTITLE7=Without God
TTITLE8=The Old Country Church
TTITLE9=In the Shelter of His Arms
EXTD=ID3G: 2
EXTT0=
EXTT1=
EXTT2=
EXTT3=
EXTT4=
EXTT5=
EXTT6=
EXTT7=
EXTT8=
EXTT9=
PLAYORDER=
